<?xml version="1.0" encoding="UTF-8" standalone="no"?>
<!DOCTYPE svg PUBLIC "-//W3C//DTD SVG 1.1//EN"
 "http://www.w3.org/Graphics/SVG/1.1/DTD/svg11.dtd">
<!-- Generated by graphviz version 2.38.0 (20140413.2041)
 -->
<!-- Title: G Pages: 1 -->
<svg width="847pt" height="1722pt"
 viewBox="0.00 0.00 847.05 1722.00" xmlns="http://www.w3.org/2000/svg" xmlns:xlink="http://www.w3.org/1999/xlink">
<g id="graph0" class="graph" transform="scale(1 1) rotate(0) translate(4 1718)">
<title>G</title>
<polygon fill="white" stroke="none" points="-4,4 -4,-1718 843.053,-1718 843.053,4 -4,4"/>
<g id="clust1" class="cluster"><title>cluster_Global</title>
<path fill="none" stroke="gray" d="M589.053,-8C589.053,-8 819.053,-8 819.053,-8 825.053,-8 831.053,-14 831.053,-20 831.053,-20 831.053,-1694 831.053,-1694 831.053,-1700 825.053,-1706 819.053,-1706 819.053,-1706 589.053,-1706 589.053,-1706 583.053,-1706 577.053,-1700 577.053,-1694 577.053,-1694 577.053,-20 577.053,-20 577.053,-14 583.053,-8 589.053,-8"/>
<text text-anchor="middle" x="704.053" y="-1693.2" font-family="Times New Roman,serif" font-size="11.00" fill="gray">Global</text>
</g>
<g id="clust2" class="cluster"><title>cluster_\App</title>
<path fill="none" stroke="gray" d="M597.053,-366C597.053,-366 811.053,-366 811.053,-366 817.053,-366 823.053,-372 823.053,-378 823.053,-378 823.053,-1666 823.053,-1666 823.053,-1672 817.053,-1678 811.053,-1678 811.053,-1678 597.053,-1678 597.053,-1678 591.053,-1678 585.053,-1672 585.053,-1666 585.053,-1666 585.053,-378 585.053,-378 585.053,-372 591.053,-366 597.053,-366"/>
<text text-anchor="middle" x="704.053" y="-1665.2" font-family="Times New Roman,serif" font-size="11.00" fill="gray">App</text>
</g>
<g id="clust4" class="cluster"><title>cluster_\App\DataFixtures</title>
<path fill="none" stroke="gray" d="M659.053,-1228C659.053,-1228 749.053,-1228 749.053,-1228 755.053,-1228 761.053,-1234 761.053,-1240 761.053,-1240 761.053,-1342 761.053,-1342 761.053,-1348 755.053,-1354 749.053,-1354 749.053,-1354 659.053,-1354 659.053,-1354 653.053,-1354 647.053,-1348 647.053,-1342 647.053,-1342 647.053,-1240 647.053,-1240 647.053,-1234 653.053,-1228 659.053,-1228"/>
<text text-anchor="middle" x="704.053" y="-1341.2" font-family="Times New Roman,serif" font-size="11.00" fill="gray">DataFixtures</text>
</g>
<g id="clust6" class="cluster"><title>cluster_\App\Repository</title>
<path fill="none" stroke="gray" d="M622.053,-420C622.053,-420 786.053,-420 786.053,-420 792.053,-420 798.053,-426 798.053,-432 798.053,-432 798.053,-858 798.053,-858 798.053,-864 792.053,-870 786.053,-870 786.053,-870 622.053,-870 622.053,-870 616.053,-870 610.053,-864 610.053,-858 610.053,-858 610.053,-432 610.053,-432 610.053,-426 616.053,-420 622.053,-420"/>
<text text-anchor="middle" x="704.053" y="-857.2" font-family="Times New Roman,serif" font-size="11.00" fill="gray">Repository</text>
</g>
<g id="clust3" class="cluster"><title>cluster_\App\Controller</title>
<path fill="none" stroke="gray" d="M605.053,-1362C605.053,-1362 803.053,-1362 803.053,-1362 809.053,-1362 815.053,-1368 815.053,-1374 815.053,-1374 815.053,-1638 815.053,-1638 815.053,-1644 809.053,-1650 803.053,-1650 803.053,-1650 605.053,-1650 605.053,-1650 599.053,-1650 593.053,-1644 593.053,-1638 593.053,-1638 593.053,-1374 593.053,-1374 593.053,-1368 599.053,-1362 605.053,-1362"/>
<text text-anchor="middle" x="704.053" y="-1637.2" font-family="Times New Roman,serif" font-size="11.00" fill="gray">Controller</text>
</g>
<g id="clust5" class="cluster"><title>cluster_\App\Form</title>
<path fill="none" stroke="gray" d="M642.553,-878C642.553,-878 765.553,-878 765.553,-878 771.553,-878 777.553,-884 777.553,-890 777.553,-890 777.553,-1208 777.553,-1208 777.553,-1214 771.553,-1220 765.553,-1220 765.553,-1220 642.553,-1220 642.553,-1220 636.553,-1220 630.553,-1214 630.553,-1208 630.553,-1208 630.553,-890 630.553,-890 630.553,-884 636.553,-878 642.553,-878"/>
<text text-anchor="middle" x="704.053" y="-1207.2" font-family="Times New Roman,serif" font-size="11.00" fill="gray">Form</text>
</g>
<g id="clust7" class="cluster"><title>cluster_\DoctrineMigrations</title>
<path fill="none" stroke="gray" d="M629.053,-16C629.053,-16 779.053,-16 779.053,-16 785.053,-16 791.053,-22 791.053,-28 791.053,-28 791.053,-346 791.053,-346 791.053,-352 785.053,-358 779.053,-358 779.053,-358 629.053,-358 629.053,-358 623.053,-358 617.053,-352 617.053,-346 617.053,-346 617.053,-28 617.053,-28 617.053,-22 623.053,-16 629.053,-16"/>
<text text-anchor="middle" x="704.053" y="-345.2" font-family="Times New Roman,serif" font-size="11.00" fill="gray">DoctrineMigrations</text>
</g>
<!-- \\App\\Controller\\ActvtComplController -->
<g id="node1" class="node"><title>\\App\\Controller\\ActvtComplController</title>
<polygon fill="none" stroke="black" points="780.053,-1622 628.053,-1622 628.053,-1586 780.053,-1586 780.053,-1622"/>
<text text-anchor="middle" x="704.053" y="-1601.2" font-family="Courier,monospace" font-size="11.00">ActvtComplController</text>
</g>
<!-- \\Symfony\\Bundle\\FrameworkBundle\\Controller\\AbstractController -->
<g id="node29" class="node"><title>\\Symfony\\Bundle\\FrameworkBundle\\Controller\\AbstractController</title>
<ellipse fill="none" stroke="black" cx="264.527" cy="-1496" rx="252.655" ry="18"/>
<text text-anchor="middle" x="264.527" y="-1492.3" font-family="Times New Roman,serif" font-size="14.00" fill="gray">\Symfony\Bundle\FrameworkBundle\Controller\AbstractController</text>
</g>
<!-- \\App\\Controller\\ActvtComplController&#45;&gt;\\Symfony\\Bundle\\FrameworkBundle\\Controller\\AbstractController -->
<g id="edge1" class="edge"><title>\\App\\Controller\\ActvtComplController&#45;&gt;\\Symfony\\Bundle\\FrameworkBundle\\Controller\\AbstractController</title>
<path fill="none" stroke="black" d="M627.978,-1588.47C611.189,-1584.84 593.488,-1580.9 577.053,-1577 495.244,-1557.61 401.994,-1533.03 339.008,-1516.06"/>
<polygon fill="none" stroke="black" points="339.732,-1512.63 329.165,-1513.41 337.908,-1519.39 339.732,-1512.63"/>
</g>
<!-- \\App\\Controller\\ApplicationRapportController -->
<g id="node2" class="node"><title>\\App\\Controller\\ApplicationRapportController</title>
<polygon fill="none" stroke="black" points="807.053,-1568 601.053,-1568 601.053,-1532 807.053,-1532 807.053,-1568"/>
<text text-anchor="middle" x="704.053" y="-1547.2" font-family="Courier,monospace" font-size="11.00">ApplicationRapportController</text>
</g>
<!-- \\App\\Controller\\ApplicationRapportController&#45;&gt;\\Symfony\\Bundle\\FrameworkBundle\\Controller\\AbstractController -->
<g id="edge2" class="edge"><title>\\App\\Controller\\ApplicationRapportController&#45;&gt;\\Symfony\\Bundle\\FrameworkBundle\\Controller\\AbstractController</title>
<path fill="none" stroke="black" d="M601.025,-1537.41C541.822,-1530.1 466.488,-1520.8 402.211,-1512.87"/>
<polygon fill="none" stroke="black" points="402.347,-1509.36 391.994,-1511.61 401.49,-1516.31 402.347,-1509.36"/>
</g>
<!-- \\App\\Controller\\MedicamentController -->
<g id="node3" class="node"><title>\\App\\Controller\\MedicamentController</title>
<polygon fill="none" stroke="black" points="780.053,-1514 628.053,-1514 628.053,-1478 780.053,-1478 780.053,-1514"/>
<text text-anchor="middle" x="704.053" y="-1493.2" font-family="Courier,monospace" font-size="11.00">MedicamentController</text>
</g>
<!-- \\App\\Controller\\MedicamentController&#45;&gt;\\Symfony\\Bundle\\FrameworkBundle\\Controller\\AbstractController -->
<g id="edge3" class="edge"><title>\\App\\Controller\\MedicamentController&#45;&gt;\\Symfony\\Bundle\\FrameworkBundle\\Controller\\AbstractController</title>
<path fill="none" stroke="black" d="M627.84,-1496C599.03,-1496 564.274,-1496 527.838,-1496"/>
<polygon fill="none" stroke="black" points="527.52,-1492.5 517.52,-1496 527.52,-1499.5 527.52,-1492.5"/>
</g>
<!-- \\App\\Controller\\PraticienController -->
<g id="node4" class="node"><title>\\App\\Controller\\PraticienController</title>
<polygon fill="none" stroke="black" points="776.553,-1460 631.553,-1460 631.553,-1424 776.553,-1424 776.553,-1460"/>
<text text-anchor="middle" x="704.053" y="-1439.2" font-family="Courier,monospace" font-size="11.00">PraticienController</text>
</g>
<!-- \\App\\Controller\\PraticienController&#45;&gt;\\Symfony\\Bundle\\FrameworkBundle\\Controller\\AbstractController -->
<g id="edge4" class="edge"><title>\\App\\Controller\\PraticienController&#45;&gt;\\Symfony\\Bundle\\FrameworkBundle\\Controller\\AbstractController</title>
<path fill="none" stroke="black" d="M631.294,-1450.86C569.23,-1458.52 477.786,-1469.8 401.858,-1479.17"/>
<polygon fill="none" stroke="black" points="401.225,-1475.73 391.729,-1480.42 402.083,-1482.67 401.225,-1475.73"/>
</g>
<!-- \\App\\Controller\\SecurityController -->
<g id="node5" class="node"><title>\\App\\Controller\\SecurityController</title>
<polygon fill="none" stroke="black" points="773.053,-1406 635.053,-1406 635.053,-1370 773.053,-1370 773.053,-1406"/>
<text text-anchor="middle" x="704.053" y="-1385.2" font-family="Courier,monospace" font-size="11.00">SecurityController</text>
</g>
<!-- \\App\\Controller\\SecurityController&#45;&gt;\\Symfony\\Bundle\\FrameworkBundle\\Controller\\AbstractController -->
<g id="edge5" class="edge"><title>\\App\\Controller\\SecurityController&#45;&gt;\\Symfony\\Bundle\\FrameworkBundle\\Controller\\AbstractController</title>
<path fill="none" stroke="black" d="M634.925,-1402.04C616.136,-1406.06 595.774,-1410.56 577.053,-1415 495.244,-1434.39 401.994,-1458.97 339.008,-1475.94"/>
<polygon fill="none" stroke="black" points="337.908,-1472.61 329.165,-1478.59 339.732,-1479.37 337.908,-1472.61"/>
</g>
<!-- \\App\\DataFixtures\\AppFixtures -->
<g id="node6" class="node"><title>\\App\\DataFixtures\\AppFixtures</title>
<polygon fill="none" stroke="black" points="749.553,-1326 658.553,-1326 658.553,-1290 749.553,-1290 749.553,-1326"/>
<text text-anchor="middle" x="704.053" y="-1305.2" font-family="Courier,monospace" font-size="11.00">AppFixtures</text>
</g>
<!-- \\Doctrine\\Bundle\\FixturesBundle\\Fixture -->
<g id="node30" class="node"><title>\\Doctrine\\Bundle\\FixturesBundle\\Fixture</title>
<ellipse fill="none" stroke="black" cx="264.527" cy="-1281" rx="157.072" ry="18"/>
<text text-anchor="middle" x="264.527" y="-1277.3" font-family="Times New Roman,serif" font-size="14.00" fill="gray">\Doctrine\Bundle\FixturesBundle\Fixture</text>
</g>
<!-- \\App\\DataFixtures\\AppFixtures&#45;&gt;\\Doctrine\\Bundle\\FixturesBundle\\Fixture -->
<g id="edge6" class="edge"><title>\\App\\DataFixtures\\AppFixtures&#45;&gt;\\Doctrine\\Bundle\\FixturesBundle\\Fixture</title>
<path fill="none" stroke="black" d="M658.286,-1305.24C601.093,-1301.71 499.248,-1295.42 413.6,-1290.14"/>
<polygon fill="none" stroke="black" points="413.703,-1286.64 403.506,-1289.51 413.272,-1293.62 413.703,-1286.64"/>
</g>
<!-- \\App\\DataFixtures\\UserFixtures -->
<g id="node7" class="node"><title>\\App\\DataFixtures\\UserFixtures</title>
<polygon fill="none" stroke="black" points="753.053,-1272 655.053,-1272 655.053,-1236 753.053,-1236 753.053,-1272"/>
<text text-anchor="middle" x="704.053" y="-1251.2" font-family="Courier,monospace" font-size="11.00">UserFixtures</text>
</g>
<!-- \\App\\DataFixtures\\UserFixtures&#45;&gt;\\Doctrine\\Bundle\\FixturesBundle\\Fixture -->
<g id="edge7" class="edge"><title>\\App\\DataFixtures\\UserFixtures&#45;&gt;\\Doctrine\\Bundle\\FixturesBundle\\Fixture</title>
<path fill="none" stroke="black" d="M654.978,-1256.97C597.277,-1260.53 497.785,-1266.67 413.808,-1271.85"/>
<polygon fill="none" stroke="black" points="413.413,-1268.37 403.648,-1272.48 413.844,-1275.35 413.413,-1268.37"/>
</g>
<!-- \\App\\Form\\ActiviteComplType -->
<g id="node8" class="node"><title>\\App\\Form\\ActiviteComplType</title>
<polygon fill="none" stroke="black" points="769.553,-1192 638.553,-1192 638.553,-1156 769.553,-1156 769.553,-1192"/>
<text text-anchor="middle" x="704.053" y="-1171.2" font-family="Courier,monospace" font-size="11.00">ActiviteComplType</text>
</g>
<!-- \\Symfony\\Component\\Form\\AbstractType -->
<g id="node31" class="node"><title>\\Symfony\\Component\\Form\\AbstractType</title>
<ellipse fill="none" stroke="black" cx="264.527" cy="-1039" rx="167.07" ry="18"/>
<text text-anchor="middle" x="264.527" y="-1035.3" font-family="Times New Roman,serif" font-size="14.00" fill="gray">\Symfony\Component\Form\AbstractType</text>
</g>
<!-- \\App\\Form\\ActiviteComplType&#45;&gt;\\Symfony\\Component\\Form\\AbstractType -->
<g id="edge8" class="edge"><title>\\App\\Form\\ActiviteComplType&#45;&gt;\\Symfony\\Component\\Form\\AbstractType</title>
<path fill="none" stroke="black" d="M638.258,-1161.7C618.487,-1157.53 596.768,-1152.51 577.053,-1147 485.341,-1121.38 381.278,-1083.45 319.64,-1060.03"/>
<polygon fill="none" stroke="black" points="320.711,-1056.69 310.12,-1056.4 318.217,-1063.24 320.711,-1056.69"/>
</g>
<!-- \\App\\Form\\InviterType -->
<g id="node9" class="node"><title>\\App\\Form\\InviterType</title>
<polygon fill="none" stroke="black" points="749.553,-1138 658.553,-1138 658.553,-1102 749.553,-1102 749.553,-1138"/>
<text text-anchor="middle" x="704.053" y="-1117.2" font-family="Courier,monospace" font-size="11.00">InviterType</text>
</g>
<!-- \\App\\Form\\InviterType&#45;&gt;\\Symfony\\Component\\Form\\AbstractType -->
<g id="edge9" class="edge"><title>\\App\\Form\\InviterType&#45;&gt;\\Symfony\\Component\\Form\\AbstractType</title>
<path fill="none" stroke="black" d="M658.286,-1111.71C588.31,-1098.76 451.494,-1073.43 359.28,-1056.36"/>
<polygon fill="none" stroke="black" points="359.854,-1052.9 349.384,-1054.52 358.579,-1059.79 359.854,-1052.9"/>
</g>
<!-- \\App\\Form\\MedicamentType -->
<g id="node10" class="node"><title>\\App\\Form\\MedicamentType</title>
<polygon fill="none" stroke="black" points="759.553,-1084 648.553,-1084 648.553,-1048 759.553,-1048 759.553,-1084"/>
<text text-anchor="middle" x="704.053" y="-1063.2" font-family="Courier,monospace" font-size="11.00">MedicamentType</text>
</g>
<!-- \\App\\Form\\MedicamentType&#45;&gt;\\Symfony\\Component\\Form\\AbstractType -->
<g id="edge10" class="edge"><title>\\App\\Form\\MedicamentType&#45;&gt;\\Symfony\\Component\\Form\\AbstractType</title>
<path fill="none" stroke="black" d="M648.525,-1062.64C591.518,-1059.12 499.447,-1053.44 419.864,-1048.52"/>
<polygon fill="none" stroke="black" points="419.922,-1045.02 409.726,-1047.9 419.491,-1052.01 419.922,-1045.02"/>
</g>
<!-- \\App\\Form\\OffrirType -->
<g id="node11" class="node"><title>\\App\\Form\\OffrirType</title>
<polygon fill="none" stroke="black" points="746.053,-1030 662.053,-1030 662.053,-994 746.053,-994 746.053,-1030"/>
<text text-anchor="middle" x="704.053" y="-1009.2" font-family="Courier,monospace" font-size="11.00">OffrirType</text>
</g>
<!-- \\App\\Form\\OffrirType&#45;&gt;\\Symfony\\Component\\Form\\AbstractType -->
<g id="edge11" class="edge"><title>\\App\\Form\\OffrirType&#45;&gt;\\Symfony\\Component\\Form\\AbstractType</title>
<path fill="none" stroke="black" d="M661.892,-1014.54C606.847,-1017.94 506.204,-1024.15 420.111,-1029.46"/>
<polygon fill="none" stroke="black" points="419.722,-1025.98 409.957,-1030.09 420.153,-1032.96 419.722,-1025.98"/>
</g>
<!-- \\App\\Form\\PraticienType -->
<g id="node12" class="node"><title>\\App\\Form\\PraticienType</title>
<polygon fill="none" stroke="black" points="756.053,-976 652.053,-976 652.053,-940 756.053,-940 756.053,-976"/>
<text text-anchor="middle" x="704.053" y="-955.2" font-family="Courier,monospace" font-size="11.00">PraticienType</text>
</g>
<!-- \\App\\Form\\PraticienType&#45;&gt;\\Symfony\\Component\\Form\\AbstractType -->
<g id="edge12" class="edge"><title>\\App\\Form\\PraticienType&#45;&gt;\\Symfony\\Component\\Form\\AbstractType</title>
<path fill="none" stroke="black" d="M652.007,-967.45C580.415,-980.704 448.933,-1005.05 359.407,-1021.62"/>
<polygon fill="none" stroke="black" points="358.717,-1018.19 349.521,-1023.45 359.991,-1025.07 358.717,-1018.19"/>
</g>
<!-- \\App\\Form\\RapportVisiteType -->
<g id="node13" class="node"><title>\\App\\Form\\RapportVisiteType</title>
<polygon fill="none" stroke="black" points="769.553,-922 638.553,-922 638.553,-886 769.553,-886 769.553,-922"/>
<text text-anchor="middle" x="704.053" y="-901.2" font-family="Courier,monospace" font-size="11.00">RapportVisiteType</text>
</g>
<!-- \\App\\Form\\RapportVisiteType&#45;&gt;\\Symfony\\Component\\Form\\AbstractType -->
<g id="edge13" class="edge"><title>\\App\\Form\\RapportVisiteType&#45;&gt;\\Symfony\\Component\\Form\\AbstractType</title>
<path fill="none" stroke="black" d="M638.258,-916.296C618.487,-920.473 596.768,-925.493 577.053,-931 485.341,-956.62 381.278,-994.546 319.64,-1017.97"/>
<polygon fill="none" stroke="black" points="318.217,-1014.76 310.12,-1021.6 320.711,-1021.31 318.217,-1014.76"/>
</g>
<!-- \\App\\Repository\\ActiviteComplRepository -->
<g id="node14" class="node"><title>\\App\\Repository\\ActiviteComplRepository</title>
<polygon fill="none" stroke="black" points="790.053,-842 618.053,-842 618.053,-806 790.053,-806 790.053,-842"/>
<text text-anchor="middle" x="704.053" y="-821.2" font-family="Courier,monospace" font-size="11.00">ActiviteComplRepository</text>
</g>
<!-- \\Doctrine\\Bundle\\DoctrineBundle\\Repository\\ServiceEntityRepository -->
<g id="node34" class="node"><title>\\Doctrine\\Bundle\\DoctrineBundle\\Repository\\ServiceEntityRepository</title>
<ellipse fill="none" stroke="black" cx="264.527" cy="-635" rx="264.553" ry="18"/>
<text text-anchor="middle" x="264.527" y="-631.3" font-family="Times New Roman,serif" font-size="14.00" fill="gray">\Doctrine\Bundle\DoctrineBundle\Repository\ServiceEntityRepository</text>
</g>
<!-- \\App\\Repository\\ActiviteComplRepository&#45;&gt;\\Doctrine\\Bundle\\DoctrineBundle\\Repository\\ServiceEntityRepository -->
<g id="edge21" class="edge"><title>\\App\\Repository\\ActiviteComplRepository&#45;&gt;\\Doctrine\\Bundle\\DoctrineBundle\\Repository\\ServiceEntityRepository</title>
<path fill="none" stroke="black" d="M617.794,-808.991C603.997,-805.635 589.999,-801.657 577.053,-797 472.784,-759.491 359.522,-693.572 302.61,-658.499"/>
<polygon fill="none" stroke="black" points="304.313,-655.437 293.969,-653.144 300.625,-661.387 304.313,-655.437"/>
</g>
<!-- \\App\\Repository\\InviterRepository -->
<g id="node15" class="node"><title>\\App\\Repository\\InviterRepository</title>
<polygon fill="none" stroke="black" points="769.553,-788 638.553,-788 638.553,-752 769.553,-752 769.553,-788"/>
<text text-anchor="middle" x="704.053" y="-767.2" font-family="Courier,monospace" font-size="11.00">InviterRepository</text>
</g>
<!-- \\App\\Repository\\InviterRepository&#45;&gt;\\Doctrine\\Bundle\\DoctrineBundle\\Repository\\ServiceEntityRepository -->
<g id="edge22" class="edge"><title>\\App\\Repository\\InviterRepository&#45;&gt;\\Doctrine\\Bundle\\DoctrineBundle\\Repository\\ServiceEntityRepository</title>
<path fill="none" stroke="black" d="M638.258,-757.704C618.487,-753.527 596.768,-748.507 577.053,-743 485.864,-717.527 382.465,-679.886 320.699,-656.434"/>
<polygon fill="none" stroke="black" points="321.743,-653.086 311.152,-652.796 319.25,-659.628 321.743,-653.086"/>
</g>
<!-- \\App\\Repository\\MedicamentRepository -->
<g id="node16" class="node"><title>\\App\\Repository\\MedicamentRepository</title>
<polygon fill="none" stroke="black" points="780.053,-734 628.053,-734 628.053,-698 780.053,-698 780.053,-734"/>
<text text-anchor="middle" x="704.053" y="-713.2" font-family="Courier,monospace" font-size="11.00">MedicamentRepository</text>
</g>
<!-- \\App\\Repository\\MedicamentRepository&#45;&gt;\\Doctrine\\Bundle\\DoctrineBundle\\Repository\\ServiceEntityRepository -->
<g id="edge23" class="edge"><title>\\App\\Repository\\MedicamentRepository&#45;&gt;\\Doctrine\\Bundle\\DoctrineBundle\\Repository\\ServiceEntityRepository</title>
<path fill="none" stroke="black" d="M627.84,-702.076C555.791,-688.737 446.548,-668.513 366.856,-653.759"/>
<polygon fill="none" stroke="black" points="367.268,-650.276 356.798,-651.897 365.994,-657.159 367.268,-650.276"/>
</g>
<!-- \\App\\Repository\\OffrirRepository -->
<g id="node17" class="node"><title>\\App\\Repository\\OffrirRepository</title>
<polygon fill="none" stroke="black" points="766.553,-680 641.553,-680 641.553,-644 766.553,-644 766.553,-680"/>
<text text-anchor="middle" x="704.053" y="-659.2" font-family="Courier,monospace" font-size="11.00">OffrirRepository</text>
</g>
<!-- \\App\\Repository\\OffrirRepository&#45;&gt;\\Doctrine\\Bundle\\DoctrineBundle\\Repository\\ServiceEntityRepository -->
<g id="edge24" class="edge"><title>\\App\\Repository\\OffrirRepository&#45;&gt;\\Doctrine\\Bundle\\DoctrineBundle\\Repository\\ServiceEntityRepository</title>
<path fill="none" stroke="black" d="M641.294,-658.189C596.556,-655.428 533.302,-651.525 471.425,-647.706"/>
<polygon fill="none" stroke="black" points="471.304,-644.192 461.107,-647.069 470.872,-651.179 471.304,-644.192"/>
</g>
<!-- \\App\\Repository\\PraticienRepository -->
<g id="node18" class="node"><title>\\App\\Repository\\PraticienRepository</title>
<polygon fill="none" stroke="black" points="776.553,-626 631.553,-626 631.553,-590 776.553,-590 776.553,-626"/>
<text text-anchor="middle" x="704.053" y="-605.2" font-family="Courier,monospace" font-size="11.00">PraticienRepository</text>
</g>
<!-- \\App\\Repository\\PraticienRepository&#45;&gt;\\Doctrine\\Bundle\\DoctrineBundle\\Repository\\ServiceEntityRepository -->
<g id="edge25" class="edge"><title>\\App\\Repository\\PraticienRepository&#45;&gt;\\Doctrine\\Bundle\\DoctrineBundle\\Repository\\ServiceEntityRepository</title>
<path fill="none" stroke="black" d="M631.294,-612.428C587.384,-615.138 528.767,-618.755 471.343,-622.299"/>
<polygon fill="none" stroke="black" points="470.781,-618.827 461.016,-622.936 471.213,-625.814 470.781,-618.827"/>
</g>
<!-- \\App\\Repository\\RapportVisiteRepository -->
<g id="node19" class="node"><title>\\App\\Repository\\RapportVisiteRepository</title>
<polygon fill="none" stroke="black" points="790.053,-572 618.053,-572 618.053,-536 790.053,-536 790.053,-572"/>
<text text-anchor="middle" x="704.053" y="-551.2" font-family="Courier,monospace" font-size="11.00">RapportVisiteRepository</text>
</g>
<!-- \\App\\Repository\\RapportVisiteRepository&#45;&gt;\\Doctrine\\Bundle\\DoctrineBundle\\Repository\\ServiceEntityRepository -->
<g id="edge26" class="edge"><title>\\App\\Repository\\RapportVisiteRepository&#45;&gt;\\Doctrine\\Bundle\\DoctrineBundle\\Repository\\ServiceEntityRepository</title>
<path fill="none" stroke="black" d="M617.915,-569.762C546.064,-583.064 443.041,-602.136 366.935,-616.226"/>
<polygon fill="none" stroke="black" points="366.048,-612.831 356.852,-618.093 367.322,-619.714 366.048,-612.831"/>
</g>
<!-- \\App\\Repository\\UserRepository -->
<g id="node20" class="node"><title>\\App\\Repository\\UserRepository</title>
<polygon fill="none" stroke="black" points="759.553,-518 648.553,-518 648.553,-482 759.553,-482 759.553,-518"/>
<text text-anchor="middle" x="704.053" y="-497.2" font-family="Courier,monospace" font-size="11.00">UserRepository</text>
</g>
<!-- \\App\\Repository\\UserRepository&#45;&gt;\\Doctrine\\Bundle\\DoctrineBundle\\Repository\\ServiceEntityRepository -->
<g id="edge27" class="edge"><title>\\App\\Repository\\UserRepository&#45;&gt;\\Doctrine\\Bundle\\DoctrineBundle\\Repository\\ServiceEntityRepository</title>
<path fill="none" stroke="black" d="M648.43,-510.184C626.144,-514.732 600.216,-520.53 577.053,-527 485.864,-552.473 382.465,-590.114 320.699,-613.566"/>
<polygon fill="none" stroke="black" points="319.25,-610.372 311.152,-617.204 321.743,-616.914 319.25,-610.372"/>
</g>
<!-- \\App\\Repository\\VisiteurRepository -->
<g id="node21" class="node"><title>\\App\\Repository\\VisiteurRepository</title>
<polygon fill="none" stroke="black" points="773.053,-464 635.053,-464 635.053,-428 773.053,-428 773.053,-464"/>
<text text-anchor="middle" x="704.053" y="-443.2" font-family="Courier,monospace" font-size="11.00">VisiteurRepository</text>
</g>
<!-- \\App\\Repository\\VisiteurRepository&#45;&gt;\\Doctrine\\Bundle\\DoctrineBundle\\Repository\\ServiceEntityRepository -->
<g id="edge28" class="edge"><title>\\App\\Repository\\VisiteurRepository&#45;&gt;\\Doctrine\\Bundle\\DoctrineBundle\\Repository\\ServiceEntityRepository</title>
<path fill="none" stroke="black" d="M634.763,-457.151C615.786,-461.183 595.367,-466.412 577.053,-473 472.784,-510.509 359.522,-576.428 302.61,-611.501"/>
<polygon fill="none" stroke="black" points="300.625,-608.613 293.969,-616.856 304.313,-614.563 300.625,-608.613"/>
</g>
<!-- \\App\\Kernel -->
<g id="node22" class="node"><title>\\App\\Kernel</title>
<polygon fill="none" stroke="black" points="732.553,-410 675.553,-410 675.553,-374 732.553,-374 732.553,-410"/>
<text text-anchor="middle" x="704.053" y="-389.2" font-family="Courier,monospace" font-size="11.00">Kernel</text>
</g>
<!-- \\Symfony\\Component\\HttpKernel\\Kernel -->
<g id="node32" class="node"><title>\\Symfony\\Component\\HttpKernel\\Kernel</title>
<ellipse fill="none" stroke="black" cx="264.527" cy="-392" rx="159.472" ry="18"/>
<text text-anchor="middle" x="264.527" y="-388.3" font-family="Times New Roman,serif" font-size="14.00" fill="gray">\Symfony\Component\HttpKernel\Kernel</text>
</g>
<!-- \\App\\Kernel&#45;&gt;\\Symfony\\Component\\HttpKernel\\Kernel -->
<g id="edge14" class="edge"><title>\\App\\Kernel&#45;&gt;\\Symfony\\Component\\HttpKernel\\Kernel</title>
<path fill="none" stroke="black" d="M675.352,-392C627.19,-392 524.496,-392 433.961,-392"/>
<polygon fill="none" stroke="black" points="433.834,-388.5 423.834,-392 433.834,-395.5 433.834,-388.5"/>
</g>
<!-- \\DoctrineMigrations\\Version20181120164847 -->
<g id="node23" class="node"><title>\\DoctrineMigrations\\Version20181120164847</title>
<polygon fill="none" stroke="black" points="783.053,-330 625.053,-330 625.053,-294 783.053,-294 783.053,-330"/>
<text text-anchor="middle" x="704.053" y="-309.2" font-family="Courier,monospace" font-size="11.00">Version20181120164847</text>
</g>
<!-- \\Doctrine\\Migrations\\AbstractMigration -->
<g id="node33" class="node"><title>\\Doctrine\\Migrations\\AbstractMigration</title>
<ellipse fill="none" stroke="black" cx="264.527" cy="-177" rx="153.273" ry="18"/>
<text text-anchor="middle" x="264.527" y="-173.3" font-family="Times New Roman,serif" font-size="14.00" fill="gray">\Doctrine\Migrations\AbstractMigration</text>
</g>
<!-- \\DoctrineMigrations\\Version20181120164847&#45;&gt;\\Doctrine\\Migrations\\AbstractMigration -->
<g id="edge15" class="edge"><title>\\DoctrineMigrations\\Version20181120164847&#45;&gt;\\Doctrine\\Migrations\\AbstractMigration</title>
<path fill="none" stroke="black" d="M624.72,-296.774C608.856,-293.253 592.351,-289.274 577.053,-285 485.079,-259.307 380.684,-221.237 319.113,-197.832"/>
<polygon fill="none" stroke="black" points="320.199,-194.5 309.608,-194.205 317.704,-201.04 320.199,-194.5"/>
</g>
<!-- \\DoctrineMigrations\\Version20181126132254 -->
<g id="node24" class="node"><title>\\DoctrineMigrations\\Version20181126132254</title>
<polygon fill="none" stroke="black" points="783.053,-276 625.053,-276 625.053,-240 783.053,-240 783.053,-276"/>
<text text-anchor="middle" x="704.053" y="-255.2" font-family="Courier,monospace" font-size="11.00">Version20181126132254</text>
</g>
<!-- \\DoctrineMigrations\\Version20181126132254&#45;&gt;\\Doctrine\\Migrations\\AbstractMigration -->
<g id="edge16" class="edge"><title>\\DoctrineMigrations\\Version20181126132254&#45;&gt;\\Doctrine\\Migrations\\AbstractMigration</title>
<path fill="none" stroke="black" d="M624.832,-243.519C549.875,-229.642 436.741,-208.697 357.501,-194.027"/>
<polygon fill="none" stroke="black" points="357.995,-190.559 347.525,-192.181 356.721,-197.443 357.995,-190.559"/>
</g>
<!-- \\DoctrineMigrations\\Version20181126132611 -->
<g id="node25" class="node"><title>\\DoctrineMigrations\\Version20181126132611</title>
<polygon fill="none" stroke="black" points="783.053,-222 625.053,-222 625.053,-186 783.053,-186 783.053,-222"/>
<text text-anchor="middle" x="704.053" y="-201.2" font-family="Courier,monospace" font-size="11.00">Version20181126132611</text>
</g>
<!-- \\DoctrineMigrations\\Version20181126132611&#45;&gt;\\Doctrine\\Migrations\\AbstractMigration -->
<g id="edge17" class="edge"><title>\\DoctrineMigrations\\Version20181126132611&#45;&gt;\\Doctrine\\Migrations\\AbstractMigration</title>
<path fill="none" stroke="black" d="M624.832,-199.173C565.439,-195.508 482.078,-190.364 410.601,-185.953"/>
<polygon fill="none" stroke="black" points="410.794,-182.458 400.598,-185.335 410.363,-189.445 410.794,-182.458"/>
</g>
<!-- \\DoctrineMigrations\\Version20181204161113 -->
<g id="node26" class="node"><title>\\DoctrineMigrations\\Version20181204161113</title>
<polygon fill="none" stroke="black" points="783.053,-168 625.053,-168 625.053,-132 783.053,-132 783.053,-168"/>
<text text-anchor="middle" x="704.053" y="-147.2" font-family="Courier,monospace" font-size="11.00">Version20181204161113</text>
</g>
<!-- \\DoctrineMigrations\\Version20181204161113&#45;&gt;\\Doctrine\\Migrations\\AbstractMigration -->
<g id="edge18" class="edge"><title>\\DoctrineMigrations\\Version20181204161113&#45;&gt;\\Doctrine\\Migrations\\AbstractMigration</title>
<path fill="none" stroke="black" d="M624.832,-154.827C565.439,-158.492 482.078,-163.636 410.601,-168.047"/>
<polygon fill="none" stroke="black" points="410.363,-164.555 400.598,-168.665 410.794,-171.542 410.363,-164.555"/>
</g>
<!-- \\DoctrineMigrations\\Version20181210085849 -->
<g id="node27" class="node"><title>\\DoctrineMigrations\\Version20181210085849</title>
<polygon fill="none" stroke="black" points="783.053,-114 625.053,-114 625.053,-78 783.053,-78 783.053,-114"/>
<text text-anchor="middle" x="704.053" y="-93.2" font-family="Courier,monospace" font-size="11.00">Version20181210085849</text>
</g>
<!-- \\DoctrineMigrations\\Version20181210085849&#45;&gt;\\Doctrine\\Migrations\\AbstractMigration -->
<g id="edge19" class="edge"><title>\\DoctrineMigrations\\Version20181210085849&#45;&gt;\\Doctrine\\Migrations\\AbstractMigration</title>
<path fill="none" stroke="black" d="M624.832,-110.481C549.875,-124.358 436.741,-145.303 357.501,-159.973"/>
<polygon fill="none" stroke="black" points="356.721,-156.557 347.525,-161.819 357.995,-163.441 356.721,-156.557"/>
</g>
<!-- \\DoctrineMigrations\\Version20181210090207 -->
<g id="node28" class="node"><title>\\DoctrineMigrations\\Version20181210090207</title>
<polygon fill="none" stroke="black" points="783.053,-60 625.053,-60 625.053,-24 783.053,-24 783.053,-60"/>
<text text-anchor="middle" x="704.053" y="-39.2" font-family="Courier,monospace" font-size="11.00">Version20181210090207</text>
</g>
<!-- \\DoctrineMigrations\\Version20181210090207&#45;&gt;\\Doctrine\\Migrations\\AbstractMigration -->
<g id="edge20" class="edge"><title>\\DoctrineMigrations\\Version20181210090207&#45;&gt;\\Doctrine\\Migrations\\AbstractMigration</title>
<path fill="none" stroke="black" d="M624.72,-57.2262C608.856,-60.7466 592.351,-64.7265 577.053,-69 485.079,-94.6926 380.684,-132.763 319.113,-156.168"/>
<polygon fill="none" stroke="black" points="317.704,-152.96 309.608,-159.795 320.199,-159.5 317.704,-152.96"/>
</g>
</g>
</svg>
